<mxfile host="app.diagrams.net" modified="2020-10-17T19:46:12.357Z" agent="5.0 (Windows)" etag="XARpAxgCRVNzMPnvNLXj" version="13.8.0" type="github">
  <diagram id="oWAuxpK0qROpDLybzshv" name="Page-1">
    <mxGraphModel dx="868" dy="479" grid="1" gridSize="10" guides="1" tooltips="1" connect="1" arrows="1" fold="1" page="1" pageScale="1" pageWidth="850" pageHeight="1100" math="0" shadow="0">
      <root>
        <mxCell id="0" />
        <mxCell id="1" parent="0" />
        <mxCell id="otUpP2pZdUs7pLNOQzDf-1" value="pool" style="rounded=0;whiteSpace=wrap;html=1;" vertex="1" parent="1">
          <mxGeometry x="190" y="40" width="430" height="30" as="geometry" />
        </mxCell>
        <mxCell id="otUpP2pZdUs7pLNOQzDf-2" value="&lt;font style=&quot;font-size: 18px&quot;&gt;System&lt;/font&gt;" style="rounded=0;whiteSpace=wrap;html=1;" vertex="1" parent="1">
          <mxGeometry x="190" y="70" width="430" height="30" as="geometry" />
        </mxCell>
        <mxCell id="otUpP2pZdUs7pLNOQzDf-3" value="" style="rounded=0;whiteSpace=wrap;html=1;" vertex="1" parent="1">
          <mxGeometry x="190" y="100" width="430" height="570" as="geometry" />
        </mxCell>
        <mxCell id="otUpP2pZdUs7pLNOQzDf-4" value="" style="ellipse;whiteSpace=wrap;html=1;aspect=fixed;strokeColor=#FF3333;fillColor=#000000;" vertex="1" parent="1">
          <mxGeometry x="390.5" y="110" width="29" height="29" as="geometry" />
        </mxCell>
        <mxCell id="otUpP2pZdUs7pLNOQzDf-5" value="&lt;div&gt;&lt;font style=&quot;font-size: 18px&quot;&gt;Word&lt;/font&gt;&lt;/div&gt;&lt;div&gt;&lt;font style=&quot;font-size: 18px&quot;&gt;Embedding&lt;/font&gt;&lt;br&gt;&lt;/div&gt;" style="rounded=1;whiteSpace=wrap;html=1;strokeColor=#000000;fillColor=#FFFFFF;" vertex="1" parent="1">
          <mxGeometry x="200" y="170" width="120" height="60" as="geometry" />
        </mxCell>
        <mxCell id="otUpP2pZdUs7pLNOQzDf-6" value="&lt;div&gt;&lt;font style=&quot;font-size: 18px&quot;&gt;Character&lt;/font&gt;&lt;/div&gt;&lt;div&gt;&lt;font style=&quot;font-size: 18px&quot;&gt;Embedding&lt;/font&gt;&lt;br&gt;&lt;/div&gt;" style="rounded=1;whiteSpace=wrap;html=1;strokeColor=#000000;fillColor=#FFFFFF;" vertex="1" parent="1">
          <mxGeometry x="490" y="170" width="120" height="60" as="geometry" />
        </mxCell>
        <mxCell id="otUpP2pZdUs7pLNOQzDf-23" style="edgeStyle=orthogonalEdgeStyle;rounded=0;orthogonalLoop=1;jettySize=auto;html=1;entryX=0.5;entryY=0;entryDx=0;entryDy=0;" edge="1" parent="1" source="otUpP2pZdUs7pLNOQzDf-7" target="otUpP2pZdUs7pLNOQzDf-8">
          <mxGeometry relative="1" as="geometry" />
        </mxCell>
        <mxCell id="otUpP2pZdUs7pLNOQzDf-7" value="" style="ellipse;whiteSpace=wrap;html=1;aspect=fixed;strokeColor=#000000;fillColor=#FFFFFF;" vertex="1" parent="1">
          <mxGeometry x="388" y="260" width="34" height="34" as="geometry" />
        </mxCell>
        <mxCell id="otUpP2pZdUs7pLNOQzDf-24" style="edgeStyle=orthogonalEdgeStyle;rounded=0;orthogonalLoop=1;jettySize=auto;html=1;entryX=0.5;entryY=0;entryDx=0;entryDy=0;" edge="1" parent="1" source="otUpP2pZdUs7pLNOQzDf-8" target="otUpP2pZdUs7pLNOQzDf-9">
          <mxGeometry relative="1" as="geometry" />
        </mxCell>
        <mxCell id="otUpP2pZdUs7pLNOQzDf-8" value="&lt;div&gt;&lt;font style=&quot;font-size: 18px&quot;&gt;Concatenate&lt;/font&gt;&lt;/div&gt;" style="rounded=1;whiteSpace=wrap;html=1;strokeColor=#000000;fillColor=#FFFFFF;" vertex="1" parent="1">
          <mxGeometry x="345" y="330" width="120" height="60" as="geometry" />
        </mxCell>
        <mxCell id="otUpP2pZdUs7pLNOQzDf-25" style="edgeStyle=orthogonalEdgeStyle;rounded=0;orthogonalLoop=1;jettySize=auto;html=1;entryX=0.5;entryY=0;entryDx=0;entryDy=0;" edge="1" parent="1" source="otUpP2pZdUs7pLNOQzDf-9" target="otUpP2pZdUs7pLNOQzDf-10">
          <mxGeometry relative="1" as="geometry" />
        </mxCell>
        <mxCell id="otUpP2pZdUs7pLNOQzDf-9" value="&lt;div&gt;&lt;font style=&quot;font-size: 18px&quot;&gt;Highway&lt;/font&gt;&lt;/div&gt;&lt;div&gt;&lt;font style=&quot;font-size: 18px&quot;&gt;Network&lt;/font&gt;&lt;/div&gt;&lt;div&gt;&lt;font style=&quot;font-size: 18px&quot;&gt;Layer&lt;/font&gt;&lt;br&gt;&lt;/div&gt;" style="rounded=1;whiteSpace=wrap;html=1;strokeColor=#000000;fillColor=#FFFFFF;" vertex="1" parent="1">
          <mxGeometry x="330" y="430" width="150" height="70" as="geometry" />
        </mxCell>
        <mxCell id="otUpP2pZdUs7pLNOQzDf-26" style="edgeStyle=orthogonalEdgeStyle;rounded=0;orthogonalLoop=1;jettySize=auto;html=1;" edge="1" parent="1" source="otUpP2pZdUs7pLNOQzDf-10" target="otUpP2pZdUs7pLNOQzDf-12">
          <mxGeometry relative="1" as="geometry" />
        </mxCell>
        <mxCell id="otUpP2pZdUs7pLNOQzDf-10" value="&lt;div&gt;&lt;font style=&quot;font-size: 18px&quot;&gt;Contexual&lt;/font&gt;&lt;/div&gt;&lt;div&gt;&lt;font style=&quot;font-size: 18px&quot;&gt;Embedding&lt;/font&gt;&lt;br&gt;&lt;/div&gt;" style="rounded=1;whiteSpace=wrap;html=1;strokeColor=#000000;fillColor=#FFFFFF;" vertex="1" parent="1">
          <mxGeometry x="345" y="530" width="120" height="60" as="geometry" />
        </mxCell>
        <mxCell id="otUpP2pZdUs7pLNOQzDf-12" value="" style="ellipse;whiteSpace=wrap;html=1;aspect=fixed;strokeColor=#FF3333;fillColor=#000000;" vertex="1" parent="1">
          <mxGeometry x="390.5" y="620" width="29" height="29" as="geometry" />
        </mxCell>
        <mxCell id="otUpP2pZdUs7pLNOQzDf-13" value="" style="endArrow=none;html=1;fillColor=#3333FF;" edge="1" parent="1">
          <mxGeometry width="50" height="50" relative="1" as="geometry">
            <mxPoint x="260" y="150" as="sourcePoint" />
            <mxPoint x="560" y="150" as="targetPoint" />
          </mxGeometry>
        </mxCell>
        <mxCell id="otUpP2pZdUs7pLNOQzDf-14" value="" style="endArrow=classic;html=1;fillColor=#3333FF;entryX=0.5;entryY=0;entryDx=0;entryDy=0;" edge="1" parent="1" target="otUpP2pZdUs7pLNOQzDf-5">
          <mxGeometry width="50" height="50" relative="1" as="geometry">
            <mxPoint x="260" y="150" as="sourcePoint" />
            <mxPoint x="230" y="170" as="targetPoint" />
          </mxGeometry>
        </mxCell>
        <mxCell id="otUpP2pZdUs7pLNOQzDf-15" value="" style="endArrow=classic;html=1;fillColor=#3333FF;entryX=0.583;entryY=-0.033;entryDx=0;entryDy=0;entryPerimeter=0;" edge="1" parent="1" target="otUpP2pZdUs7pLNOQzDf-6">
          <mxGeometry width="50" height="50" relative="1" as="geometry">
            <mxPoint x="560" y="150" as="sourcePoint" />
            <mxPoint x="240" y="180" as="targetPoint" />
          </mxGeometry>
        </mxCell>
        <mxCell id="otUpP2pZdUs7pLNOQzDf-16" value="" style="endArrow=classic;html=1;fillColor=#3333FF;entryX=0;entryY=0.5;entryDx=0;entryDy=0;" edge="1" parent="1">
          <mxGeometry width="50" height="50" relative="1" as="geometry">
            <mxPoint x="260" y="276" as="sourcePoint" />
            <mxPoint x="390.5" y="275.5" as="targetPoint" />
          </mxGeometry>
        </mxCell>
        <mxCell id="otUpP2pZdUs7pLNOQzDf-17" value="" style="endArrow=none;html=1;fillColor=#3333FF;exitX=0.5;exitY=1;exitDx=0;exitDy=0;" edge="1" parent="1">
          <mxGeometry width="50" height="50" relative="1" as="geometry">
            <mxPoint x="259.5" y="230" as="sourcePoint" />
            <mxPoint x="260" y="280" as="targetPoint" />
          </mxGeometry>
        </mxCell>
        <mxCell id="otUpP2pZdUs7pLNOQzDf-21" value="" style="endArrow=none;html=1;fillColor=#3333FF;exitX=0.5;exitY=1;exitDx=0;exitDy=0;" edge="1" parent="1">
          <mxGeometry width="50" height="50" relative="1" as="geometry">
            <mxPoint x="560" y="230" as="sourcePoint" />
            <mxPoint x="560.5" y="280" as="targetPoint" />
          </mxGeometry>
        </mxCell>
        <mxCell id="otUpP2pZdUs7pLNOQzDf-22" value="" style="endArrow=classic;html=1;fillColor=#3333FF;entryX=1;entryY=0.5;entryDx=0;entryDy=0;" edge="1" parent="1" target="otUpP2pZdUs7pLNOQzDf-7">
          <mxGeometry width="50" height="50" relative="1" as="geometry">
            <mxPoint x="560" y="277" as="sourcePoint" />
            <mxPoint x="590.5" y="294" as="targetPoint" />
          </mxGeometry>
        </mxCell>
      </root>
    </mxGraphModel>
  </diagram>
</mxfile>
